<?xml version="1.0" encoding="UTF-8" ?>
<!DOCTYPE svg PUBLIC "-//W3C//DTD SVG 1.1//EN" "http://www.w3.org/Graphics/SVG/1.1/DTD/svg11.dtd">
<svg width="96pt" height="96pt" viewBox="0 0 96 96" version="1.1" xmlns="http://www.w3.org/2000/svg">
<g id="#31c8cfff">
<path fill="#31c8cf" opacity="1.00" d=" M 33.73 21.59 C 43.40 7.80 64.69 4.88 77.96 15.08 C 89.43 23.62 92.33 41.00 85.16 53.18 C 80.60 61.21 72.15 66.84 63.01 68.06 C 59.40 68.53 55.75 68.36 52.12 68.37 C 52.12 62.74 52.12 57.12 52.12 51.49 C 56.85 51.41 62.09 52.22 66.20 49.29 C 72.86 45.05 73.72 34.41 67.94 29.08 C 61.98 23.62 51.28 25.29 47.23 32.28 C 44.78 36.09 45.53 40.78 45.44 45.05 C 39.67 45.07 33.90 45.06 28.12 45.06 C 27.67 36.92 28.57 28.24 33.73 21.59 Z" />
<path fill="#31c8cf" opacity="1.00" d=" M 7.00 50.94 C 20.00 50.94 33.00 50.94 46.00 50.94 C 46.00 63.63 46.00 76.31 46.00 89.00 C 41.27 88.96 36.54 89.08 31.82 88.97 C 29.69 89.05 27.69 87.17 27.70 85.03 C 27.49 79.65 27.69 74.27 27.63 68.89 C 22.10 68.81 16.56 69.00 11.04 68.82 C 9.05 68.83 7.12 67.12 7.06 65.11 C 6.88 60.39 7.06 55.66 7.00 50.94 Z" />
</g>
</svg>
