<?xml version="1.0" encoding="UTF-8" ?>
<!DOCTYPE svg PUBLIC "-//W3C//DTD SVG 1.1//EN" "http://www.w3.org/Graphics/SVG/1.1/DTD/svg11.dtd">
<svg width="96pt" height="96pt" viewBox="0 0 96 96" version="1.1" xmlns="http://www.w3.org/2000/svg">
<g id="#ffffffff">
<path fill="#ffffff" opacity="1.00" d=" M 52.46 9.80 C 60.49 8.44 69.19 9.35 76.07 14.00 C 89.44 22.26 92.68 42.20 83.85 54.87 C 79.30 61.26 72.47 66.26 64.61 67.49 C 60.55 67.96 56.45 67.74 52.37 67.71 C 52.35 62.32 52.30 56.93 52.43 51.54 C 57.97 51.68 64.63 52.37 68.54 47.53 C 74.13 41.95 73.01 31.81 66.34 27.61 C 59.18 22.86 48.42 26.72 45.80 34.86 C 45.14 38.09 45.26 41.42 44.77 44.67 C 39.30 44.75 33.82 44.75 28.35 44.67 C 28.24 38.64 28.15 32.32 30.90 26.77 C 34.82 18.07 43.18 11.75 52.46 9.80 Z" />
<path fill="#ffffff" opacity="1.00" d=" M 7.31 51.31 C 20.11 51.30 32.90 51.30 45.69 51.31 C 45.70 63.77 45.70 76.23 45.69 88.69 C 40.86 88.68 36.02 88.90 31.19 88.59 C 29.76 88.54 28.32 87.26 28.34 85.79 C 28.00 80.16 28.66 74.50 27.99 68.88 C 22.40 68.24 16.78 68.90 11.18 68.55 C 9.25 68.59 7.10 67.08 7.36 64.97 C 7.16 60.42 7.29 55.86 7.31 51.31 Z" />
</g>
</svg>
